<svg width="21" height="159" viewBox="0 0 21 159" fill="none" xmlns="http://www.w3.org/2000/svg">
<path d="M15 0V4H13C12.31 4 12 4.81 12 5.5V8H15V12H12V20H8V12H5V8H8V4C8 1.79 9.79 0 12 0H15Z" fill="white"/>
<path d="M5.8 50H14.2C17.4 50 20 52.6 20 55.8V64.2C20 67.4 17.4 70 14.2 70H5.8C2.6 70 0 67.4 0 64.2V55.8C0 52.6 2.6 50 5.8 50ZM5.6 52C3.61 52 2 53.61 2 55.6V64.4C2 66.39 3.61 68 5.6 68H14.4C16.39 68 18 66.39 18 64.4V55.6C18 53.61 16.39 52 14.4 52H5.6ZM15.25 53.5C15.94 53.5 16.5 54.06 16.5 54.75C16.5 55.44 15.94 56 15.25 56C14.56 56 14 55.44 14 54.75C14 54.06 14.56 53.5 15.25 53.5ZM10 55C12.76 55 15 57.24 15 60C15 62.76 12.76 65 10 65C7.24 65 5 62.76 5 60C5 57.24 7.24 55 10 55ZM10 57C8.34 57 7 58.34 7 60C7 61.66 8.34 63 10 63C11.66 63 13 61.66 13 60C13 58.34 11.66 57 10 57Z" fill="white"/>
<path d="M20.92 102C20.15 102.35 19.32 102.58 18.46 102.69C19.34 102.16 20.02 101.32 20.34 100.31C19.51 100.81 18.59 101.16 17.62 101.36C16.83 100.5 15.72 100 14.46 100C12.11 100 10.19 101.92 10.19 104.29C10.19 104.63 10.23 104.96 10.3 105.27C6.74 105.09 3.57 103.38 1.46 100.79C1.09 101.42 0.879997 102.16 0.879997 102.94C0.879997 104.43 1.63 105.75 2.79 106.5C2.08 106.5 1.42 106.3 0.839996 106C0.839996 106 0.839996 106 0.839996 106.03C0.839996 108.11 2.32 109.85 4.28 110.24C3.92 110.34 3.54 110.39 3.15 110.39C2.88 110.39 2.61 110.36 2.35 110.31C2.89 112 4.46 113.26 6.35 113.29C4.89 114.45 3.04 115.13 1.02 115.13C0.679997 115.13 0.34 115.11 0 115.07C1.9 116.29 4.16 117 6.58 117C14.46 117 18.79 110.46 18.79 104.79C18.79 104.6 18.79 104.42 18.78 104.23C19.62 103.63 20.34 102.87 20.92 102Z" fill="white"/>
<path d="M18.2005 154.6C19.7505 156.04 20.0705 156.73 20.1205 156.82C20.7605 157.88 19.4205 157.96 19.4205 157.96L16.8405 158C16.8405 158 16.2805 158.11 15.5605 157.61C14.5905 156.95 13.6605 155.22 12.9705 155.45C12.2605 155.68 12.2805 157.23 12.2805 157.23C12.2805 157.23 12.2805 157.45 12.1205 157.62C11.9405 157.81 11.5905 157.74 11.5905 157.74H10.4405C10.4405 157.74 7.89049 158 5.66049 155.67C3.21049 153.13 1.05049 148.13 1.05049 148.13C1.05049 148.13 0.93049 147.83 1.06049 147.66C1.21049 147.5 1.63049 147.5 1.63049 147.5H4.39048C4.39048 147.5 4.66049 147.5 4.83049 147.66C4.98049 147.77 5.07049 148 5.07049 148C5.07049 148 5.51049 149.11 6.11049 150.13C7.26049 152.12 7.79049 152.55 8.16049 152.34C8.76049 152.03 8.59048 149.53 8.59048 149.53C8.59048 149.53 8.60049 148.62 8.30049 148.22C8.07049 147.91 7.63049 147.81 7.44049 147.79C7.28049 147.77 7.5405 147.41 7.8705 147.24C8.3705 147 9.24048 147 10.2805 147C11.0905 147 11.3205 147.06 11.6305 147.13C12.5905 147.36 12.2605 148.25 12.2605 150.37C12.2605 151.06 12.1605 152 12.6305 152.33C12.8405 152.47 13.3605 152.35 14.6605 150.16C15.2605 149.12 15.7205 147.89 15.7205 147.89C15.7205 147.89 15.8205 147.68 15.9705 147.58C16.1305 147.5 16.3505 147.5 16.3505 147.5H19.2505C19.2505 147.5 20.1305 147.4 20.2705 147.79C20.4205 148.2 19.9405 149.17 18.7505 150.74C16.8105 153.34 16.5905 153.1 18.2005 154.6Z" fill="white"/>
</svg>
